<svg xmlns="http://www.w3.org/2000/svg" style="width: 100%; height: 100%; display: block;" viewBox="0 0 1721 358" preserveAspectRatio="xMidYMid slice" width="1721" height="358"><TITLE>Decorative Illustration</TITLE><desc>Decorative Illustration</desc>
    <path class="illustration-tertiary-fill" d="M 0.73 1.28 h 1720 v 355.87 H 0.73 Z" />
    <g opacity="0.05" stroke="#fff" stroke-miterlimit="10" stroke-width="2">
        <path fill="none" d="M 967.48 183.38 v 29.04 m 22.2 -29.04 v 29.04 m 71.98 -29.04 v 29.9 M 575.79 183.4 v 27.94" />
        <path class="illustration-tertiary-fill" d="M 1177.97 150.08 H 0.73" />
        <path fill="none" d="M 820.41 66.66 h 27.06 m -27.06 -10.42 h 27.06 m 111.6 0 h 41.71 m -41.71 10.42 h 41.71 m -41.71 10.43 h 41.71 m -41.71 10.43 h 41.71 m -41.71 10.43 h 41.71 m -41.71 10.42 h 41.71 m -41.71 10.43 h 55.42 m -68.64 -37.31 h 4.72 v 16.84 h -4.72 Z m -20.15 0 h 4.72 v 16.84 h -4.72 Z m 10.16 0 h 4.72 v 16.84 h -4.72 Z m 9.99 -25.25 h 4.72 v 16.84 h -4.72 Z m -20.15 0 h 4.72 v 16.84 h -4.72 Z m 10.16 0 h 4.72 v 16.84 h -4.72 Z m -81.06 93.84 V 2.16 M 477.1 150.08 V 2.16 m 335.98 0 v 147.92 m 187.7 0 V 2.16 m -41.71 0 v 147.92 M 875.65 2.16 v 147.92 h 41.71 V 2.16 m -20.85 94.43 v -7.91 m -6.5 7.91 v -7.91 m -6.5 7.91 v -7.91 M 903 96.59 v -7.91 m 6.5 7.91 v -7.91 m -12.99 0.23 V 81 m 0 -5.85 v -7.91 m -6.5 21.67 V 81 m 0 -5.85 v -7.91 m -6.5 21.67 V 81 m 0 -5.85 v -7.91 M 903 88.91 V 81 m 0 -5.85 v -7.91 m 6.5 21.67 V 81 m 0 -5.85 v -7.91 m -12.99 0.23 v -7.9 m 0 -5.86 v -9.77 m -6.5 23.53 v -7.9 m 0 -5.86 v -9.77 m -6.5 23.53 v -7.9 m 0 -5.86 v -9.77 M 903 67.47 v -7.9 m 0 -5.86 v -9.77 m 6.5 23.53 v -7.9 m 0 -5.86 v -9.77 m -89.09 41.58 h 27.06 m -27.06 10.34 h 27.06 m -27.06 10.34 h 27.06 m -27.06 10.34 h 27.06 m -27.06 10.34 h 27.06 m -27.06 10.34 h 27.06 m -34.39 -93.28 h 187.7 M 896.51 118.8 v -16.36 m -6.5 16.36 v -16.36 m -6.5 16.36 v -16.36 M 903 118.8 v -16.36 m 6.5 16.36 v -16.36 m 7.86 -58.5 l 41.71 -41.71 m -83.42 41.71 l 41.71 -41.71 m 41.6 41.71 l 41.78 -41.78 M 820.41 76.05 h 27.06 m 203.09 134.85 V 2.16 m 36.27 147.92 h -72.34 V 43.94 h 72.34 Z M 478.15 43.94 h 700 m -38.4 -41.78 v 203.41" />
        <circle fill="none" cx="1050.56" cy="161.18" r="11.1" />
        <circle fill="none" cx="1050.56" cy="183.38" r="11.1" />
        <circle fill="none" cx="586.89" cy="161.2" r="11.1" />
        <circle fill="none" cx="586.89" cy="183.4" r="11.1" />
        <circle fill="none" cx="564.69" cy="183.4" r="11.1" />
        <circle fill="none" cx="1139.75" cy="126.65" r="11.1" />
        <circle fill="none" cx="584.89" cy="73.62" r="11.1" />
        <circle fill="none" cx="562.69" cy="73.62" r="11.1" />
        <path fill="none" d="M 1076.53 67.25 h -25.97 v -7.68 h 25.97 Z m 0 16.48 h -25.97 v -7.68 h 25.97 Z m 0 16.48 h -25.97 v -7.68 h 25.97 Z m 0 16.48 h -25.97 v -7.68 h 25.97 Z m 0 16.48 h -25.97 v -7.68 h 25.97 Z M 678.54 2.16 v 41.78 m 397.99 15.63 h 101.62 m -91.32 7.9 h 35.24 m -35.24 7.91 h 35.24 m -35.24 7.9 h 35.24 m -35.24 7.9 h 35.24 m -35.24 7.91 h 35.24 m -35.24 7.9 h 35.24 m -35.24 7.91 h 35.24 m -35.24 7.9 h 35.24 m -35.24 7.91 h 35.24 m -45.54 -86.77 V 23.21 m -8.17 20.73 V 23.21" />
        <circle fill="none" cx="801.98" cy="104.45" r="11.1" />
        <circle fill="none" cx="801.98" cy="126.65" r="11.1" />
        <path fill="none" d="M 801.98 93.35 v 56.73 m 11.1 -56.73 H 478.15 m -372.17 -0.02 H 0.73 M 678.54 2.16 v 91.19 m 117.29 -80.71 h 4.72 v 64.45 h -4.72 Z m -20.14 0 h 4.72 v 64.45 h -4.72 Z m 10.15 0 h 4.72 v 64.45 h -4.72 Z m -20.81 0 h 4.72 v 64.45 h -4.72 Z m -20.14 0 h 4.72 v 64.45 h -4.72 Z m 10.15 0 h 4.72 v 64.45 h -4.72 Z" />
        <circle fill="none" cx="1000.78" cy="161.18" r="11.1" />
        <circle fill="none" cx="1000.78" cy="183.38" r="11.1" />
        <path fill="none" d="M 1000.78 150.08 v 61.99 m -244.65 -1.17 V 93.19" />
        <circle fill="none" cx="956.38" cy="161.18" r="11.1" />
        <circle fill="none" cx="956.38" cy="183.38" r="11.1" />
        <path fill="none" d="M 956.38 150.08 v 61.49" />
        <circle fill="none" cx="1161.95" cy="126.65" r="11.1" />
        <path fill="none" d="M 1161.95 115.55 v 34.64" />
        <circle fill="none" cx="978.58" cy="183.38" r="11.1" />
        <path fill="none" d="M 978.58 150.08 v 61.49" />
        <circle fill="none" cx="1072.76" cy="183.38" r="11.1" />
        <path fill="none" d="M 1072.76 150.08 v 61.49" />
        <circle fill="none" cx="381.12" cy="161.18" r="11.1" />
        <circle fill="none" cx="381.12" cy="183.38" r="11.1" />
        <path fill="none" d="M 381.12 150.08 v 61.99" />
        <circle fill="none" cx="336.72" cy="161.18" r="11.1" />
        <circle fill="none" cx="336.72" cy="183.38" r="11.1" />
        <path fill="none" d="M 336.72 150.08 v 61.49" />
        <circle fill="none" cx="358.92" cy="183.38" r="11.1" />
        <path fill="none" d="M 358.92 150.08 v 61.49" />
        <circle fill="none" cx="512.37" cy="104.46" r="11.07" />
        <circle fill="none" cx="512.37" cy="126.6" r="11.07" />
        <path fill="none" d="M 512.37 93.39 v 56.69" />
        <circle fill="none" cx="490.22" cy="126.6" r="11.07" />
        <path fill="none" d="M 490.22 93.39 v 56.69 m 11.07 -23.48 v 23.48 m 220.33 -0.01 l -74.66 -74.66 a 28 28 0 0 0 -19.8 -8.2 h -1.83 a 28 28 0 0 1 -19.8 -8.2 l -6.86 -6.85 a 28 28 0 0 0 -19.8 -8.2 h -38.84 a 28 28 0 0 1 -19.8 -8.2 l -35 -35 m -5.09 92.59 h 28.93 a 64.12 64.12 0 0 1 44.82 18.15 l 148.93 145.66 M 0.73 212.02 H 8.9 a 64.12 64.12 0 0 1 44.83 18.14 l 130.13 126.86 m 46.57 -145.72 h 28.93 a 64.12 64.12 0 0 1 44.82 18.15 l 129.77 126.49 M 584.89 93.19 V 43.94 m -22.2 18.58 v 31.06" />
        <circle fill="none" cx="695.77" cy="124.22" r="11.1" />
        <path fill="none" d="M 695.77 124.22 v 25.85 m -485.15 106 l -74.66 -74.66 a 28 28 0 0 0 -19.8 -8.2 h -1.83 a 28 28 0 0 1 -19.8 -8.2 l -6.86 -6.85 a 28 28 0 0 0 -19.8 -8.2 H 29.03 a 28 28 0 0 1 -19.8 -8.2 l -8.5 -8.55" />
        <circle fill="none" cx="184.77" cy="232.22" r="11.1" />
        <path fill="none" d="M 184.77 232.22 v 25.84 M 573.79 73.62 v 19.73 m 83.33 56.74 a 28 28 0 1 0 -56 0 m 56 0 a 28 28 0 1 0 -56 0 m 28.01 -28 h -64.41 m 156.9 88.81 V 43.94 M 90.58 13.72 h 4.72 v 64.45 h -4.72 Z m -20.14 0 h 4.72 v 64.45 h -4.72 Z m 10.15 0 h 4.72 v 64.45 h -4.72 Z m -20.81 0 h 4.72 v 64.45 h -4.72 Z m -20.14 0 h 4.72 v 64.45 h -4.72 Z m 10.15 0 h 4.72 v 64.45 h -4.72 Z M 22.37 211.98 V 0.71 M 586.89 150.1 v 61.97 m -22.2 -61.97 v 61.97" />
        <circle fill="none" cx="76.03" cy="269.37" r="11.1" />
        <circle fill="none" cx="76.03" cy="291.57" r="11.1" />
        <circle fill="none" cx="53.83" cy="291.57" r="11.1" />
        <path fill="none" d="M 76.03 258.27 v 61.97 m -22.2 -61.97 v 61.97" />
        <circle fill="none" cx="328.67" cy="269.37" r="11.1" />
        <circle fill="none" cx="328.67" cy="291.57" r="11.1" />
        <circle fill="none" cx="306.47" cy="291.57" r="11.1" />
        <path fill="none" d="M 328.67 258.27 v 61.97 m -22.2 -61.97 v 61.97 m 322.66 -198.15 v 28.01 m -3.4 -128.04 a 37.37 37.37 0 0 0 52.84 0 m -52.84 0 a 37.37 37.37 0 0 0 -52.84 0" />
        <path fill="none" d="M 678.54 22.06 H 520.01 a 37.37 37.37 0 0 0 52.84 0 m 84.27 128.02 v 61.99 m 0 -41.46 h 64.5 m -64.5 -10.43 h 64.5 m -64.5 29.28 h 64.5 m -64.5 -9.47 h 64.5 m 47.44 -70.19 h -25.87 v -7.26 h 25.87 Z m 0 15.6 h -25.87 v -7.26 h 25.87 Z m 0 15.59 h -25.87 v -7.26 h 25.87 Z M 237.51 257.13 V 152.05 m 12.94 16.62 h -25.87 v -7.26 h 25.87 Z m 0 15.58 h -25.87 v -7.26 h 25.87 Z m 0 15.59 h -25.87 v -7.26 h 25.87 Z" />
        <path class="illustration-tertiary-fill" d="M 1249.6 356.3 h -816 m 807.5 -9.02 H 424.85 m 606.25 -9.01 h -616 m 735.34 0 h -64.67 m 146.83 0 h -27.16 m -183 -9.02 H 407.35 m 733.75 0 h -47 m 129.94 0 h -10.27 m -205.17 -9.01 H 0.73 m 852.79 -8.57 H 387.35 m 466.17 -9.46 H 379.1 m 474.42 -9.02 H 368.6 m 484.92 -9.01 H 360.77 m 492.75 -9.02 H 350.1 m 503.42 -9.01 H 342.1 m 511.42 -9.02 H 0.73 m 692.48 -9.76 H 801.1 m -115.66 -8.27 h 108.33 m -117.24 -7.75 H 786.1 m -119.83 -10.28 h 108.17" />
        <path fill="none" d="M 210.62 319.14 V 152.18 m -64.5 126.66 h 64.5 m -64.5 -10.43 h 64.5 m -64.5 29.29 h 64.5 m -64.5 -9.47 h 64.5 m -64.5 -30.07 a 28 28 0 1 0 -56 0 m 28.01 -27.99 H 53.72 m 64.41 0 v 28.02 m 27.99 -0.02 v 61.98" />
        <path class="illustration-tertiary-fill" d="M 1123.48 150.08 h 597.25" />
        <path fill="none" d="M 1481.04 66.66 h -27.06 m 27.06 -10.42 h -27.06 m -111.6 0 h -41.71 m 41.71 10.42 h -41.71 m 41.71 10.43 h -41.71 m 41.71 10.43 h -41.71 m 41.71 10.43 h -41.71 m 41.71 10.42 h -41.71 m 41.71 10.43 h -55.42 m 63.92 -37.31 h 4.72 v 16.84 h -4.72 Z m 20.15 0 h 4.72 v 16.84 h -4.72 Z m -10.15 0 h 4.72 v 16.84 h -4.72 Z m -10 -25.25 h 4.72 v 16.84 h -4.72 Z m 20.15 0 h 4.72 v 16.84 h -4.72 Z m -10.15 0 h 4.72 v 16.84 h -4.72 Z m 85.77 93.84 V 2.16 m 41.72 0 v 147.92 m -187.7 0 V 2.16 m 41.71 0 v 147.92 M 1425.8 2.16 v 147.92 h -41.71 V 2.16 m 20.85 94.43 v -7.91 m 6.5 7.91 v -7.91 m 6.5 7.91 v -7.91 m -19.49 7.91 v -7.91 m -6.5 7.91 v -7.91 m 12.99 0.23 V 81 m 0 -5.85 v -7.91 m 6.5 21.67 V 81 m 0 -5.85 v -7.91 m 6.5 21.67 V 81 m 0 -5.85 v -7.91 m -19.49 21.67 V 81 m 0 -5.85 v -7.91 m -6.5 21.67 V 81 m 0 -5.85 v -7.91 m 12.99 0.23 v -7.9 m 0 -5.86 v -9.77 m 6.5 23.53 v -7.9 m 0 -5.86 v -9.77 m 6.5 23.53 v -7.9 m 0 -5.86 v -9.77 m -19.49 23.53 v -7.9 m 0 -5.86 v -9.77 m -6.5 23.53 v -7.9 m 0 -5.86 v -9.77 m 89.09 41.58 h -27.06 m 27.06 10.34 h -27.06 m 27.06 10.34 h -27.06 m 27.06 10.34 h -27.06 m 27.06 10.34 h -27.06 m 27.06 10.34 h -27.06 m 34.39 -93.28 h -187.7 m 104.27 74.86 v -16.36 m 6.5 16.36 v -16.36 m 6.5 16.36 v -16.36 m -19.49 16.36 v -16.36 m -6.5 16.36 v -16.36 m -7.86 -58.5 l -41.71 -41.71 m 83.42 41.71 l -41.71 -41.71 m -41.6 41.71 L 1300.7 2.16 m 180.34 73.89 h -27.06 m -203.09 82.85 V 2.16 m -36.27 41.78 h 72.34 v 106.14 h -72.34 Z m 506.11 0 H 1123.3 m 0 -41.78 v 209.27 m 116.86 -53.09 a 11.1 11.1 0 0 1 21.6 0.61" />
        <circle fill="none" cx="1627.69" cy="161.2" r="11.1" />
        <circle fill="none" cx="1627.69" cy="183.4" r="11.1" />
        <circle fill="none" cx="1605.49" cy="183.4" r="11.1" />
        <circle fill="none" cx="1600.98" cy="73.62" r="11.1" />
        <circle fill="none" cx="1623.18" cy="73.62" r="11.1" />
        <path fill="none" d="M 1224.92 59.57 h 25.97 v 7.68 h -25.97 Z m 0 16.48 h 25.97 v 7.68 h -25.97 Z m 0 16.48 h 25.97 v 7.68 h -25.97 Z m 0 16.48 h 25.97 v 7.68 h -25.97 Z m 0 16.48 h 25.97 v 7.68 h -25.97 Z M 1154.07 2.16 v 41.78 m -7.36 -41.78 v 41.78 m -7.36 -41.78 v 41.78 m -7.36 -41.78 v 41.78 m 92.93 15.63 H 1123.3 m 101.62 -15.63 V 23.21 m 8.17 20.73 V 23.21" />
        <circle fill="none" cx="1499.47" cy="126.65" r="11.1" />
        <path fill="none" d="M 1499.47 93.35 v 56.73" />
        <circle fill="none" cx="1521.83" cy="104.45" r="11.1" />
        <circle fill="none" cx="1521.83" cy="126.65" r="11.1" />
        <path fill="none" d="M 1521.83 93.35 v 56.73 m -33.46 -57.39 h 232.36 M 0.73 211.43 h 1030.78 m 463.67 45.41 h 225.55 m -97.83 -212.9 v 49.41 m -333.11 65.6 a 11.1 11.1 0 0 1 21.74 0 m -10.86 -10.87 v 10.56 m 33.52 0.31 a 11.1 11.1 0 0 1 21.75 0 m -10.87 -8.87 v 8.87" />
        <circle fill="none" cx="1139.5" cy="104.45" r="11.1" />
        <circle fill="none" cx="1139.5" cy="126.65" r="11.1" />
        <path fill="none" d="M 1139.5 93.35 v 56.84 m 183.37 -0.11 v 8.82 m -94.18 -8.82 v 9.16 M 1719 92.77 l -17.35 -17.35 a 28 28 0 0 0 -19.8 -8.2 h -1.83 a 28 28 0 0 1 -19.8 -8.2 l -6.87 -6.86 a 28 28 0 0 0 -19.8 -8.2 h -38.82 a 28 28 0 0 1 -19.8 -8.2 l -35 -35 m -18.1 92.59 h 28.9 a 64.18 64.18 0 0 1 44.82 18.12 l 125.18 121.61 M 1600.98 93.19 V 62.52 m 22.2 0 v 31.06 m -11.1 -19.96 v 19.73 m -101.35 37.66 v 19.73 m 133.6 -0.65 a 28 28 0 0 1 56 0 m -56 0 a 28 28 0 0 1 56 0 m -95.06 -28 h 67.05 m -44.63 27.99 v 61.35 m -22.2 -61.35 v 61.35 m 66.83 -89.34 v 28.01 m -41.65 -128.04 a 37.37 37.37 0 0 1 -52.84 0 m 52.84 0 a 37.37 37.37 0 0 1 52.84 0 m 37.22 9.36 a 37.36 37.36 0 0 1 -37.22 -9.36 m -105.68 -0.01 h 142.9 m -20.41 125.94 v 63.44 m 20.41 -40.82 h -20.41 m 20.41 -10.43 h -20.41 m 20.41 29.28 h -20.41 m 20.41 -9.47 h -20.41" />
        <path class="illustration-tertiary-fill" d="M 1610.6 320.1 h 110.13 m -83.83 -9.38 h 83.83 m -83.83 -9.02 h 83.83 m -83.83 -9.01 h 83.83 m -83.83 -9.02 h 83.83 m -83.83 -9.01 h 83.83 m -83.83 -9.02 h 83.83 m -3.63 -36.06 h 3.63 m -12.95 -9.01 h 12.95 m -23.06 -10 h 23.06" />
        <path fill="none" d="M 1450.43 320.11 h -231 m -82.7 0.05 H 999.54 a 16 16 0 0 1 -16 -16 v -37.83 a 54.39 54.39 0 0 1 15.93 -38.46 a 54.39 54.39 0 0 1 38.46 -15.93 h 68.62 a 91 91 0 0 0 64.33 -26.65 a 91 91 0 0 1 64.33 -26.65 h 219.29 a 91 91 0 0 1 64.33 26.65 a 91 91 0 0 0 64.33 26.65 h 54.66 v 92.22 a 16 16 0 0 1 -16 16 h -88.72" />
        <path fill="none" d="M 1200.31 211.94 a 91 91 0 0 0 64.33 -26.65 a 91 91 0 0 1 64.33 -26.65 m -270.42 98.37 a 45.18 45.18 0 1 0 45.18 45.15 v -0.11 m 115.77 18.11 a 45.19 45.19 0 1 0 -41.49 27.26 a 45 45 0 0 0 41.49 -27.26" />
        <circle fill="none" cx="1178.01" cy="302.19" r="23.71" />
        <path fill="none" d="M 1191.6 211.93 h 405.7 m -612.39 45.08 h 281.52 a 130.27 130.27 0 0 1 92.11 38.15 l 10 10 l 15 15 m 108.03 -63.15 h 146.25 m -475.8 -45.08 h 337.91 m 137.89 45.08 h -82.38 l 18 -18 a 34.64 34.64 0 0 1 24.5 -10.15 h 39.86 v 28.17 Z" />
        <path fill="none" d="M 1135.86 320.16 h -61.31 a 16 16 0 0 1 -16 -16 v -37.83 a 54.39 54.39 0 0 1 15.93 -38.46 a 54.39 54.39 0 0 1 38.46 -15.93 h 87.37 m -126.76 108.17 h -57.4 m -32.61 -18.03 h 149.29" />
        <path fill="none" d="M 1066.95 237.29 h 25.21 a 25.36 25.36 0 0 0 25.36 -25.36" />
        <circle fill="none" cx="1491.57" cy="302.19" r="45.18" />
        <circle fill="none" cx="1491.57" cy="302.19" r="23.71" />
        <path fill="none" d="M 113.91 66.54 h 27.07 m -27.07 -10.43 h 27.07 m 98.38 25.25 h 4.72 V 98.2 h -4.72 Z m -20.15 0 h 4.72 V 98.2 h -4.72 Z m 10.15 0 h 4.72 V 98.2 h -4.72 Z m 10 -25.25 h 4.72 v 16.84 h -4.72 Z m -20.15 0 h 4.72 v 16.84 h -4.72 Z m 10.15 0 h 4.72 v 16.84 h -4.72 Z m -81.06 93.85 V 2.03 m -41.71 0 v 147.93 M 252.58 2.03 v 147.93 M 169.16 2.03 v 147.93 h 41.71 V 2.03 m -20.86 94.43 v -7.91 m -6.49 7.91 v -7.91 m -6.5 7.91 v -7.91 m 19.49 7.91 v -7.91 m 6.5 7.91 v -7.91 m -13 0.23 v -7.9 m 0 -5.86 v -7.9 m -6.49 21.66 v -7.9 m 0 -5.86 v -7.9 m -6.5 21.66 v -7.9 m 0 -5.86 v -7.9 m 19.49 21.66 v -7.9 m 0 -5.86 v -7.9 m 6.5 21.66 v -7.9 m 0 -5.86 v -7.9 m -13 0.22 v -7.9 m 0 -5.85 v -9.78 m -6.49 23.53 v -7.9 m 0 -5.85 v -9.78 m -6.5 23.53 v -7.9 m 0 -5.85 v -9.78 m 19.49 23.53 v -7.9 m 0 -5.85 v -9.78 m 6.5 23.53 v -7.9 m 0 -5.85 v -9.78 m -89.1 41.58 h 27.07 m -27.07 10.34 h 27.07 m -27.07 10.34 h 27.07 m -27.07 10.34 h 27.07 m -27.07 10.34 h 27.07 m -27.07 10.34 h 27.07 m -34.39 -93.28 h 145.99 m -62.57 74.86 v -16.36 m -6.49 16.36 v -16.36 m -6.5 16.36 v -16.36 m 19.49 16.36 v -16.36 m 6.5 16.36 v -16.36 m 7.86 -58.5 l 41.71 -41.7 m -83.42 41.7 l 41.71 -41.7 m -96.96 73.81 h 27.07 M 0.73 43.81 h 19.85" />
        <circle fill="none" cx="95.49" cy="105.32" r="11.1" />
        <circle fill="none" cx="95.49" cy="127.52" r="11.1" />
        <path fill="none" d="M 95.49 94.22 v 56.74 m 187.52 -84.3 h 27.07 m -27.07 -10.42 h 27.07 m 111.59 0 h 41.71 m -41.71 10.42 h 41.71 m -41.71 10.43 h 41.71 m -41.71 10.43 h 41.71 m -41.71 10.43 h 41.71 m -41.71 10.42 h 41.71 m -41.71 10.43 h 55.42 m -68.64 -37.31 h 4.72 v 16.84 h -4.72 Z m -20.14 0 h 4.72 v 16.84 h -4.72 Z m 10.15 0 h 4.72 v 16.84 h -4.72 Z m 9.99 -25.25 h 4.72 v 16.84 h -4.72 Z m -20.14 0 h 4.72 v 16.84 h -4.72 Z m 10.15 0 h 4.72 v 16.84 h -4.72 Z m -81.06 93.84 V 2.16 m -41.71 0 v 147.92 m 187.69 60.49 V 2.16 m -41.71 0 v 208.41 M 338.25 2.16 v 147.92 h 41.71 V 2.16 m -20.85 94.43 v -7.91 m -6.5 7.91 v -7.91 m -6.49 7.91 v -7.91 m 19.49 7.91 v -7.91 m 6.49 7.91 v -7.91 m -12.99 0.23 V 81 m 0 -5.85 v -7.91 m -6.5 21.67 V 81 m 0 -5.85 v -7.91 m -6.49 21.67 V 81 m 0 -5.85 v -7.91 m 19.49 21.67 V 81 m 0 -5.85 v -7.91 m 6.49 21.67 V 81 m 0 -5.85 v -7.91 m -12.99 0.23 v -7.9 m 0 -5.86 v -9.77 m -6.5 23.53 v -7.9 m 0 -5.86 v -9.77 m -6.49 23.53 v -7.9 m 0 -5.86 v -9.77 m 19.49 23.53 v -7.9 m 0 -5.86 v -9.77 m 6.49 23.53 v -7.9 m 0 -5.86 v -9.77 m -89.09 41.58 h 27.07 m -27.07 10.34 h 27.07 m -27.07 10.34 h 27.07 m -27.07 10.34 h 27.07 m -27.07 10.34 h 27.07 m -27.07 10.34 h 27.07 m -34.39 -93.28 h 187.69 M 359.11 118.8 v -16.36 m -6.5 16.36 v -16.36 m -6.49 16.36 v -16.36 m 19.49 16.36 v -16.36 m 6.49 16.36 v -16.36 m 7.86 -58.5 l 41.71 -41.71 m -83.42 41.71 l 41.71 -41.71 m 41.6 41.71 l 41.79 -41.78 M 283.01 76.05 h 27.07" />
        <circle fill="none" cx="264.59" cy="104.45" r="11.1" />
        <circle fill="none" cx="264.59" cy="126.65" r="11.1" />
        <path fill="none" d="M 264.59 93.35 v 56.73" />
    </g>
</svg>